<?xml version="1.0" standalone="no"?><!DOCTYPE svg PUBLIC "-//W3C//DTD SVG 1.1//EN" "http://www.w3.org/Graphics/SVG/1.1/DTD/svg11.dtd"><svg t="1588485691659" class="icon" viewBox="0 0 1024 1024" version="1.1" xmlns="http://www.w3.org/2000/svg" p-id="7005" xmlns:xlink="http://www.w3.org/1999/xlink" width="16" height="16"><defs><style type="text/css"></style></defs><path d="M516.8 150.4H296.8c-8.8 0-16-7.2-16-16V49.6c0-24 19.2-43.2 43.2-43.2h165.6c24 0 43.2 19.2 43.2 43.2v84c0 9.6-7.2 16.8-16 16.8z m-204-32h188V49.6c0-6.4-4.8-11.2-11.2-11.2H324c-6.4 0-11.2 4.8-11.2 11.2v68.8zM679.2 798.4c-10.4 0-20.8-0.8-31.2-2.4-56-8-106.4-37.6-140-83.2-34.4-45.6-48-101.6-40-158.4 8-56 37.6-106.4 84-140 45.6-34.4 101.6-48 158.4-40 56 8 106.4 37.6 140 83.2 34.4 45.6 48 101.6 40 158.4-8 56-37.6 106.4-84 140-37.6 28-81.6 42.4-127.2 42.4z m-0.8-394.4c-38.4 0-76 12-108 36-39.2 28.8-64 71.2-71.2 119.2-7.2 48 4.8 96 33.6 134.4 28.8 39.2 71.2 64 119.2 71.2 48 7.2 96-4.8 134.4-33.6 39.2-28.8 64-71.2 71.2-119.2 7.2-48-4.8-96-33.6-134.4-28.8-39.2-71.2-64-119.2-71.2-8.8-1.6-17.6-2.4-26.4-2.4z" p-id="7006"></path><path d="M942.4 1016.8c-4 0-8 0-11.2-0.8-20.8-3.2-39.2-13.6-51.2-30.4L728 781.6c-3.2-4-4-9.6-2.4-14.4 1.6-4.8 5.6-8.8 10.4-10.4 18.4-6.4 36-15.2 51.2-26.4 15.2-11.2 28.8-25.6 40-41.6 3.2-4 8-6.4 12.8-7.2 4.8 0 10.4 2.4 12.8 6.4l152 204c25.6 34.4 18.4 83.2-16 108.8-13.6 11.2-29.6 16-46.4 16z m-176-236.8l139.2 186.4c7.2 9.6 18.4 16 30.4 18.4 12 1.6 24-1.6 34.4-8.8 20-15.2 24.8-44 9.6-64L840 724.8c-10.4 12-21.6 22.4-33.6 31.2a230.4 230.4 0 0 1-40 24zM640 658.4c-2.4 0-4-0.8-5.6-2.4l-64.8-67.2c-3.2-3.2-3.2-8 0-11.2 3.2-3.2 8-3.2 11.2 0l59.2 60.8L766.4 512c3.2-3.2 8-3.2 11.2 0 3.2 3.2 3.2 8 0 11.2L645.6 656c-0.8 1.6-3.2 2.4-5.6 2.4z" p-id="7007"></path><path d="M493.6 670.4H67.2C32 670.4 4 642.4 4 607.2V181.6c0-35.2 28-63.2 63.2-63.2h708c35.2 0 63.2 28 63.2 63.2v269.6c0 6.4-4 12.8-10.4 15.2-6.4 2.4-12.8 0.8-17.6-4-63.2-67.2-166.4-76.8-240.8-21.6L560 428l9.6 12.8c-64 48-89.6 133.6-61.6 208.8 1.6 4.8 0.8 10.4-1.6 14.4-2.4 4-7.2 6.4-12.8 6.4z m-426.4-520c-17.6 0-31.2 14.4-31.2 31.2v425.6c0 17.6 14.4 31.2 31.2 31.2H472c-20.8-82.4 9.6-172 79.2-224 76.8-57.6 180.8-55.2 255.2 0.8V181.6c0-17.6-14.4-31.2-31.2-31.2H67.2z" p-id="7008"></path></svg>