<?xml version="1.0" standalone="no"?><!DOCTYPE svg PUBLIC "-//W3C//DTD SVG 1.1//EN" "http://www.w3.org/Graphics/SVG/1.1/DTD/svg11.dtd"><svg t="1588486571565" class="icon" viewBox="0 0 1024 1024" version="1.1" xmlns="http://www.w3.org/2000/svg" p-id="7130" xmlns:xlink="http://www.w3.org/1999/xlink" width="16" height="16"><defs><style type="text/css"></style></defs><path d="M517.6 1020H96.8c-51.2 0-92.8-41.6-92.8-92.8V96.8C4 45.6 45.6 4 96.8 4h420.8c51.2 0 92.8 41.6 92.8 92.8V928c-0.8 50.4-42.4 92-92.8 92zM96.8 36c-33.6 0-60.8 27.2-60.8 60.8V928c0 33.6 27.2 60.8 60.8 60.8h420.8c33.6 0 60.8-27.2 60.8-60.8V96.8c0-33.6-27.2-60.8-60.8-60.8H96.8z" p-id="7131"></path><path d="M307.2 208c-41.6 0-75.2-33.6-75.2-75.2s33.6-75.2 75.2-75.2 75.2 33.6 75.2 75.2-34.4 75.2-75.2 75.2z m0-134.4c-32.8 0-59.2 26.4-59.2 59.2 0 32.8 26.4 59.2 59.2 59.2 32.8 0 59.2-26.4 59.2-59.2 0-32.8-27.2-59.2-59.2-59.2z" p-id="7132"></path><path d="M837.6 433.6c-70.4 0-154.4-15.2-242.4-46.4C450.4 336 332.8 253.6 296 176c-12.8-27.2-16-52.8-8-76l3.2-11.2c2.4-8.8 11.2-13.6 20-11.2 8.8 2.4 13.6 11.2 11.2 20l-3.2 12v0.8c-5.6 15.2-3.2 32.8 6.4 52 32.8 68.8 145.6 146.4 281.6 194.4 199.2 70.4 356.8 51.2 379.2-11.2 5.6-15.2 3.2-32.8-6.4-52-32.8-68.8-145.6-146.4-281.6-194.4-36-12.8-72-22.4-107.2-30.4L568 64.8c-8.8-1.6-14.4-9.6-13.6-18.4 1.6-8.8 9.6-14.4 18.4-13.6l24 4c37.6 8 75.2 18.4 112 31.2C853.6 120 971.2 203.2 1008 280c12.8 28 16 53.6 7.2 76.8-17.6 50.4-85.6 76.8-177.6 76.8z" p-id="7133"></path><path d="M472 544.8H147.2c-4.8 0-8-3.2-8-8s3.2-8 8-8H472c4.8 0 8 3.2 8 8s-3.2 8-8 8zM472 673.6H147.2c-4.8 0-8-3.2-8-8s3.2-8 8-8H472c4.8 0 8 3.2 8 8 0 4-3.2 8-8 8zM472 801.6H147.2c-4.8 0-8-3.2-8-8s3.2-8 8-8H472c4.8 0 8 3.2 8 8s-3.2 8-8 8z" p-id="7134"></path></svg>