<?xml version="1.0" standalone="no"?><!DOCTYPE svg PUBLIC "-//W3C//DTD SVG 1.1//EN" "http://www.w3.org/Graphics/SVG/1.1/DTD/svg11.dtd"><svg t="1588486750827" class="icon" viewBox="0 0 1024 1024" version="1.1" xmlns="http://www.w3.org/2000/svg" p-id="11153" xmlns:xlink="http://www.w3.org/1999/xlink" width="16" height="16"><defs><style type="text/css"></style></defs><path d="M564.1 175.2c-2.9 0-5.5-1.2-7.3-3.2-1.6-1.7-3.1-3.3-4.8-4.9-42-42-97.9-65.2-157.4-65.2s-115.3 23.2-157.4 65.2c-42 42-65.2 97.9-65.2 157.4 0 9.6 0.6 19 1.8 28.4 0.9 6.7 2 13.4 3.5 20 3.2 14.5 7.9 28.7 13.9 42.2 3 6.8 6.4 13.4 10.1 19.8 3.6 6.4 7.6 12.6 11.9 18.6l0.5 0.7c0.3 0.4 18.1 30.5 42.8 69.8 11.1 17.7 23.6 37.2 36.6 56.7 24.4 36.8 45.4 66.2 62.4 87.5 1.7 2.1 3.2 4 4.8 5.9 7.3 8.8 13.2 15.3 17.9 20 11 11.1 15.6 12.6 16.6 12.7 1-0.2 5.5-1.7 16.6-12.7 4.7-4.7 10.6-11.2 17.9-20 1.5-1.9 3.1-3.8 4.8-5.9 17.1-21.3 38.1-50.8 62.4-87.5 12.9-19.5 25.5-39.1 36.6-56.7 24.7-39.2 42.5-69.4 42.8-69.8l0.5-0.7c4.3-6 8.3-12.2 11.9-18.6 3.7-6.5 7.1-13.2 10.1-20 6-13.5 10.6-27.5 13.8-42 1.5-6.6 2.6-13.3 3.5-20 1.2-9.3 1.8-18.8 1.8-28.4 0-40.9-11-80.1-31.5-114.2-1.2-1.6-1.9-3.6-1.9-5.8 0-4 2.4-7.5 5.8-9.1-7.3-10-11.4-15-18.1-23.6-2 2.1-4.7 3.4-7.7 3.4z" fill="#006074" p-id="11154"></path><path d="M874.8 352.9H635.6c1.1-9.4 1.6-18.8 1.6-28.4 0-44.8-12.1-87.8-34.7-125.2h-0.1c-1.8-2.9-4.9-4.8-8.6-4.8-5.5 0-10 4.5-10 10 0 2.2 0.7 4.2 1.9 5.8 20.5 34.2 31.5 73.3 31.5 114.2 0 9.6-0.6 19-1.8 28.4-0.9 6.7-2 13.4-3.5 20-3.2 14.5-7.8 28.5-13.8 42-3 6.8-6.4 13.5-10.1 20-3.6 6.4-7.6 12.6-11.9 18.6l-0.5 0.7c-0.3 0.4-18.1 30.5-42.8 69.8-11.1 17.7-23.6 37.2-36.6 56.7-24.4 36.8-45.4 66.2-62.4 87.5-1.7 2.1-3.2 4-4.8 5.9-7.3 8.8-13.2 15.3-17.9 20-11 11.1-15.6 12.6-16.6 12.7-1-0.2-5.5-1.7-16.6-12.7-4.7-4.7-10.6-11.2-17.9-20-1.5-1.9-3.1-3.8-4.8-5.9-17.1-21.3-38.1-50.8-62.4-87.5-12.9-19.5-25.4-39.1-36.6-56.7-24.7-39.2-42.5-69.4-42.8-69.8l-0.5-0.7c-4.3-6-8.3-12.2-11.9-18.6-3.7-6.4-7-13.1-10.1-19.8-6-13.5-10.7-27.7-13.9-42.2-1.5-6.6-2.6-13.3-3.5-20-1.2-9.3-1.8-18.8-1.8-28.4 0-59.5 23.2-115.3 65.2-157.4 42-42 97.9-65.2 157.4-65.2S510 125.1 552 167.2c1.6 1.6 3.2 3.3 4.8 4.9 1.8 1.9 4.4 3.2 7.3 3.2 5.5 0 10-4.5 10-10 0-2.7-1-5-2.7-6.8l-0.3-0.3c-1.6-1.7-3.2-3.4-4.9-5.1-45.8-45.8-106.7-71-171.5-71s-125.7 25.2-171.5 71-71 106.7-71 171.5c0 9.6 0.5 19 1.6 28.4h-4.5c-46.9 0-85.1 38.2-85.1 85.1v419c0 46.9 38.2 85.1 85.1 85.1h725.6c46.9 0 85.1-38.2 85.1-85.1V438c-0.2-46.9-38.3-85.1-85.2-85.1zM685 471.5h-96.5c1.9-3.2 3.2-5.4 3.9-6.4v-0.1c6.9-9.6 13-19.7 18.3-30.1H685v36.6z m-108.5 20H695c5.5 0 10-4.5 10-10v-46.6h41v123.6l0.9-0.6 19.1-11.2 116.6-68.3c0.4 2.6 0.6 5.3 0.6 8v43.1L766 598.4l-20 11.7V754c0 5.5 4.5 10 10 10h127.2v42H756c-5.5 0-10 4.5-10 10v43h-41V634.2l-20 11.7v213.2h-43v-188l-20 11.7V859.1h-40V706.3L562 718 320.9 859.2H233L417.6 751l34.1-20 63-36.9 20.4-12 13.7-8 142-83.1 14.3-8.4v-37.4c0-5.5-4.5-10-10-10H549.4c10.5-16.7 19.8-31.8 27.1-43.7zM766 826.2h113.7c-7.5 19.3-26.3 33-48.2 33H766v-33z m117.2-82H766V621.6l117.2-68.7v191.3zM766 434.9h65.5c18.6 0 34.9 9.9 44 24.6L766 523.7v-88.8zM562 859.2H360.5L562 741.1v118.1z m-417.6-304H199v119h-54.6v-119z m0 195.8h233.7L193.5 859.1c-27.3-1.4-49.1-24-49.1-51.7V751z m367.3-157.4c8.6-13 17.1-26 25.1-38.5H685v16l-175.7 103h-54.6c15-19.2 33.6-45.3 57-80.5z m-177.1 80.5H280v-76.9c22.3 33.4 40.1 58.4 54.6 76.9zM260 566.8v117.4c0 5.5 4.5 10 10 10h80.8c23.7 27.4 35.6 32.8 43.8 32.8s20-5.3 43.8-32.8h36.7l-63 36.9H144.4v-36.9H209c5.5 0 10-4.5 10-10v-139c0-5.5-4.5-10-10-10h-64.6v-38.5h65.5v-10c11.6 19.1 29.8 48.6 50.1 80.1z m-56.2-90.1h-58.4c3.6-18.4 17-33.3 34.5-39.1 5 9.5 10.7 18.7 17 27.5v0.1l6.9 11.5z m736 380.3c0 35.9-29.2 65.1-65.1 65.1H149.2c-35.9 0-65.1-29.2-65.1-65.1V438c0-35.9 29.2-65.1 65.1-65.1h7.7c3.2 16 8 31.6 14.4 46.5-27.3 10.1-46.9 36.5-46.9 67.3v320.8c0 39.6 32.2 71.7 71.7 71.7h635.4c39.6 0 71.7-32.2 71.7-71.7V486.7c0-39.6-32.2-71.7-71.7-71.7H619.9c5.4-13.5 9.6-27.6 12.5-42h242.4c35.9 0 65.1 29.2 65.1 65.1V857z" fill="#3E3A39" p-id="11155"></path><path d="M462.9 224.4c-17.2 0-32.9 6.7-44.6 17.6-6.3 5.9-11.5 13.1-15.1 21.1-1.5 3.2-4.7 5.5-8.5 5.5s-7-2.3-8.5-5.5c-3.6-8-8.8-15.2-15.1-21.1-11.7-10.9-27.4-17.6-44.6-17.6-36.1 0-65.5 29.4-65.5 65.5 0 18.1 7.3 34.4 19.2 46.3l16.7 16.7 20 20 42 42 20 20 8.8 8.8c1.8 1.8 4.3 2.9 7.1 2.9s5.3-1.1 7.1-2.9l8.8-8.8 20-20 42-42 20-20 16.7-16.7c11.9-11.9 19.2-28.2 19.2-46.3-0.2-36.1-29.6-65.5-65.7-65.5z m32.2 97.7l-30.8 30.8-2.5 2.5-17.5 17.5-42 42-7.6 7.6-7.6-7.6-42-42-17.5-17.5-2.5-2.5-30.8-30.8c-8.2-8.2-13.3-19.6-13.3-32.2 0-25.1 20.4-45.5 45.5-45.5 18.5 0 34.4 11.1 41.5 26.9 4.2 9.4 13.2 16.2 23.9 17.2 0.9 0.1 1.8 0.1 2.8 0.1s1.9 0 2.8-0.1c10.7-1 19.7-7.8 23.9-17.2 7.1-15.8 23-26.9 41.5-26.9 25.1 0 45.5 20.4 45.5 45.5 0 12.6-5.1 23.9-13.3 32.2z" fill="#3E3A39" p-id="11156"></path><path d="M462.9 244.4c-18.5 0-34.4 11.1-41.5 26.9-4.2 9.4-13.2 16.2-23.9 17.2-0.9 0.1-1.8 0.1-2.8 0.1s-1.9 0-2.8-0.1c-10.7-1-19.7-7.8-23.9-17.2-7.1-15.8-23-26.9-41.5-26.9-25.1 0-45.5 20.4-45.5 45.5 0 12.5 5.1 23.9 13.3 32.2l33.3 33.3 67.1 67.1 67.1-67.1 33.3-33.3c8.2-8.2 13.3-19.6 13.3-32.2 0-25.1-20.4-45.5-45.5-45.5z" fill="#E285A8" p-id="11157"></path></svg>