<?xml version="1.0" standalone="no"?><!DOCTYPE svg PUBLIC "-//W3C//DTD SVG 1.1//EN" "http://www.w3.org/Graphics/SVG/1.1/DTD/svg11.dtd"><svg t="1588486666183" class="icon" viewBox="0 0 1024 1024" version="1.1" xmlns="http://www.w3.org/2000/svg" p-id="9309" xmlns:xlink="http://www.w3.org/1999/xlink" width="16" height="16"><defs><style type="text/css"></style></defs><path d="M802.133333 652.8c-6.4 0-10.666667-4.266667-10.666666-10.666667 0-152.533333-124.8-277.333333-277.333334-277.333333s-277.333333 124.8-277.333333 277.333333c0 6.4-4.266667 10.666667-10.666667 10.666667s-10.666667-4.266667-10.666666-10.666667c0-164.266667 134.4-298.666667 298.666666-298.666666s298.666667 134.4 298.666667 298.666666c0 5.333333-4.266667 10.666667-10.666667 10.666667z" fill="#231815" p-id="9310"></path><path d="M930.133333 652.8h-832c-6.4 0-10.666667-4.266667-10.666666-10.666667s4.266667-10.666667 10.666666-10.666666h832c6.4 0 10.666667 4.266667 10.666667 10.666666s-4.266667 10.666667-10.666667 10.666667zM930.133333 756.266667c-43.733333 0-66.133333-11.733333-88.533333-22.4-20.266667-10.666667-39.466667-20.266667-77.866667-20.266667s-58.666667 9.6-77.866666 20.266667c-21.333333 10.666667-43.733333 22.4-88.533334 22.4s-66.133333-11.733333-88.533333-22.4c-20.266667-10.666667-39.466667-20.266667-77.866667-20.266667-39.466667 0-57.6 9.6-77.866666 20.266667-21.333333 10.666667-43.733333 22.4-88.533334 22.4-43.733333 0-66.133333-11.733333-88.533333-22.4-20.266667-10.666667-39.466667-20.266667-77.866667-20.266667-6.4 0-10.666667-4.266667-10.666666-10.666667s4.266667-10.666667 10.666666-10.666666c43.733333 0 66.133333 11.733333 88.533334 22.4 20.266667 10.666667 39.466667 20.266667 77.866666 20.266666 39.466667 0 57.6-9.6 77.866667-20.266666 21.333333-10.666667 43.733333-22.4 88.533333-22.4 43.733333 0 66.133333 11.733333 88.533334 22.4 20.266667 10.666667 39.466667 20.266667 77.866666 20.266666s57.6-9.6 77.866667-20.266666c21.333333-10.666667 43.733333-22.4 88.533333-22.4 43.733333 0 66.133333 11.733333 88.533334 22.4 20.266667 10.666667 39.466667 20.266667 77.866666 20.266666 6.4 0 10.666667 4.266667 10.666667 10.666667s-4.266667 10.666667-10.666667 10.666667z" fill="#231815" p-id="9311"></path><path d="M930.133333 817.066667c-43.733333 0-66.133333-11.733333-88.533333-22.4-20.266667-10.666667-39.466667-20.266667-77.866667-20.266667s-58.666667 9.6-77.866666 20.266667c-21.333333 10.666667-43.733333 22.4-88.533334 22.4s-66.133333-11.733333-88.533333-22.4c-20.266667-10.666667-39.466667-20.266667-77.866667-20.266667-39.466667 0-57.6 9.6-77.866666 20.266667-21.333333 10.666667-43.733333 22.4-88.533334 22.4-43.733333 0-66.133333-11.733333-88.533333-22.4-20.266667-10.666667-39.466667-20.266667-77.866667-20.266667-6.4 0-10.666667-4.266667-10.666666-10.666667s4.266667-10.666667 10.666666-10.666666c43.733333 0 66.133333 11.733333 88.533334 22.4 20.266667 10.666667 39.466667 20.266667 77.866666 20.266666 39.466667 0 57.6-9.6 77.866667-20.266666 21.333333-10.666667 43.733333-22.4 88.533333-22.4 43.733333 0 66.133333 11.733333 88.533334 22.4 20.266667 10.666667 39.466667 20.266667 77.866666 20.266666s57.6-9.6 77.866667-20.266666c21.333333-10.666667 43.733333-22.4 88.533333-22.4 43.733333 0 66.133333 11.733333 88.533334 22.4 20.266667 10.666667 39.466667 20.266667 77.866666 20.266666 6.4 0 10.666667 4.266667 10.666667 10.666667s-4.266667 10.666667-10.666667 10.666667z" fill="#231815" p-id="9312"></path><path d="M930.133333 871.466667c-43.733333 0-66.133333-11.733333-88.533333-22.4-20.266667-10.666667-39.466667-20.266667-77.866667-20.266667s-58.666667 9.6-77.866666 20.266667c-21.333333 10.666667-43.733333 22.4-88.533334 22.4s-66.133333-11.733333-88.533333-22.4c-20.266667-10.666667-39.466667-20.266667-77.866667-20.266667-39.466667 0-57.6 9.6-77.866666 20.266667-21.333333 10.666667-43.733333 22.4-88.533334 22.4-43.733333 0-66.133333-11.733333-88.533333-22.4-20.266667-10.666667-39.466667-20.266667-77.866667-20.266667-6.4 0-10.666667-4.266667-10.666666-10.666667s4.266667-10.666667 10.666666-10.666666c43.733333 0 66.133333 11.733333 88.533334 22.4 20.266667 10.666667 39.466667 20.266667 77.866666 20.266666 39.466667 0 57.6-9.6 77.866667-20.266666 21.333333-10.666667 43.733333-22.4 88.533333-22.4 43.733333 0 66.133333 11.733333 88.533334 22.4 20.266667 10.666667 39.466667 20.266667 77.866666 20.266666s57.6-9.6 77.866667-20.266666c21.333333-10.666667 43.733333-22.4 88.533333-22.4 43.733333 0 66.133333 11.733333 88.533334 22.4 20.266667 10.666667 39.466667 20.266667 77.866666 20.266666 6.4 0 10.666667 4.266667 10.666667 10.666667s-4.266667 10.666667-10.666667 10.666667zM194.133333 568.533333c-2.133333 0-3.2 0-5.333333-1.066666l-101.333333-54.4c-5.333333-3.2-7.466667-9.6-4.266667-14.933334 3.2-5.333333 9.6-7.466667 14.933333-4.266666l101.333334 54.4c5.333333 3.2 7.466667 9.6 4.266666 14.933333-2.133333 3.2-5.333333 5.333333-9.6 5.333333zM248.533333 455.466667c-3.2 0-6.4-1.066667-8.533333-3.2L123.733333 317.866667c-4.266667-4.266667-3.2-10.666667 1.066667-14.933334 4.266667-4.266667 10.666667-3.2 14.933333 1.066667L256 437.333333c4.266667 4.266667 3.2 10.666667-1.066667 14.933334-2.133333 2.133333-4.266667 3.2-6.4 3.2zM347.733333 372.266667c-4.266667 0-7.466667-2.133333-9.6-6.4l-57.6-115.2c-2.133333-5.333333 0-11.733333 4.266667-13.866667 5.333333-2.133333 11.733333 0 13.866667 4.266667l57.6 115.2c2.133333 5.333333 0 11.733333-4.266667 13.866666-1.066667 2.133333-2.133333 2.133333-4.266667 2.133334zM482.133333 337.066667c-6.4 0-10.666667-4.266667-10.666666-10.666667V163.2c0-6.4 4.266667-10.666667 10.666666-10.666667s10.666667 4.266667 10.666667 10.666667v163.2c0 5.333333-4.266667 10.666667-10.666667 10.666667zM620.8 353.066667c-2.133333 0-3.2 0-5.333333-1.066667-5.333333-3.2-7.466667-9.6-4.266667-13.866667l53.333333-102.4c3.2-5.333333 9.6-7.466667 13.866667-4.266666 5.333333 3.2 7.466667 9.6 4.266667 13.866666l-53.333334 102.4c0 3.2-4.266667 5.333333-8.533333 5.333334zM759.466667 450.133333c-3.2 0-6.4-1.066667-7.466667-3.2-4.266667-4.266667-3.2-10.666667 1.066667-14.933333l128-113.066667c4.266667-4.266667 10.666667-3.2 14.933333 1.066667 4.266667 4.266667 3.2 10.666667-1.066667 14.933333L766.933333 448c-2.133333 1.066667-4.266667 2.133333-7.466666 2.133333zM824.533333 568.533333c-3.2 0-7.466667-2.133333-9.6-5.333333-3.2-5.333333-1.066667-11.733333 4.266667-14.933333l106.666667-59.733334c5.333333-3.2 11.733333-1.066667 14.933333 4.266667 3.2 5.333333 1.066667 11.733333-4.266667 14.933333l-106.666666 59.733334c-2.133333 1.066667-4.266667 1.066667-5.333334 1.066666z" fill="#231815" p-id="9313"></path></svg>