<?xml version="1.0" standalone="no"?><!DOCTYPE svg PUBLIC "-//W3C//DTD SVG 1.1//EN" "http://www.w3.org/Graphics/SVG/1.1/DTD/svg11.dtd"><svg t="1588486640336" class="icon" viewBox="0 0 1024 1024" version="1.1" xmlns="http://www.w3.org/2000/svg" p-id="7518" xmlns:xlink="http://www.w3.org/1999/xlink" width="16" height="16"><defs><style type="text/css"></style></defs><path d="M293.696465 513.336626H111.987582L26.80477 346.800254a19.001764 19.001764 0 0 1 16.906512-27.67177h62.857546a19.074014 19.074014 0 0 1 14.01651 6.141254z" fill="#FFFFFF" p-id="7519"></path><path d="M293.696465 513.336626H111.987582L26.80477 346.800254a19.001764 19.001764 0 0 1 16.906512-27.67177h62.857546a19.074014 19.074014 0 0 1 14.01651 6.141254z" fill="#FFFFFF" p-id="7520"></path><path d="M63.724547 319.200734H43.711282A19.001764 19.001764 0 0 0 26.80477 346.800254L111.987582 512.975376h70.805052L65.819798 327.14824a20.013265 20.013265 0 0 1-2.095251-7.947506z" fill="#5FB0E5" p-id="7521"></path><path d="M330.832992 529.592888H102.017075L12.282509 354.025259a35.330276 35.330276 0 0 1 31.501023-51.442037h62.785296a35.402526 35.402526 0 0 1 26.010019 11.415508z m-208.874903-32.512524h134.601849L108.375079 336.323996a2.601002 2.601002 0 0 0-2.023001-0.867H43.783532a2.528752 2.528752 0 0 0-2.384252 1.300501 2.745502 2.745502 0 0 0 0 2.673252z" fill="#0686D8" p-id="7522"></path><path d="M860.13688 845.325619a27.31052 27.31052 0 1 1-27.31052-27.23827 27.31052 27.31052 0 0 1 27.31052 27.23827zM635.800466 233.150921a13.65526 13.65526 0 1 1-13.65526-13.65526A13.65526 13.65526 0 0 1 635.800466 233.150921zM606.250194 771.991815A13.65526 13.65526 0 1 1 592.450434 758.625556a13.65526 13.65526 0 0 1 13.79976 13.366259z" fill="#5FB0E5" p-id="7523"></path><path d="M949.004445 170.148875m-17.918013 0a17.918013 17.918013 0 1 0 35.836026 0 17.918013 17.918013 0 1 0-35.836026 0Z" fill="#5FB0E5" p-id="7524"></path><path d="M722.428279 77.452057m-25.721019 0a25.721019 25.721019 0 1 0 51.442038 0 25.721019 25.721019 0 1 0-51.442038 0Z" fill="#5FB0E5" p-id="7525"></path><path d="M928.34093 426.275312h-2.095252a75.862556 75.862556 0 0 0-114.082833-42.772031 104.112326 104.112326 0 0 0-202.300148-15.028011 71.166302 71.166302 0 0 0-89.156566 57.800042h-11.632258a53.609539 53.609539 0 0 0-53.392789 53.392789V484.075355a53.609539 53.609539 0 0 0 53.392789 53.392789h419.050307a53.609539 53.609539 0 0 0 53.609539-53.392789v-3.973753a53.609539 53.609539 0 0 0-53.392789-53.82629z" fill="#D2E9F7" p-id="7526"></path><path d="M928.34093 553.435405v-32.584774a37.136527 37.136527 0 0 0 37.136527-36.775276v-3.973753a37.136527 37.136527 0 0 0-37.136527-37.064278h-12.282509l-5.707754-12.065758A59.678544 59.678544 0 0 0 820.977351 397.375291l-21.097015 13.58301-3.829253-24.781768a87.783814 87.783814 0 0 0-170.654625-12.643759l-4.624003 15.028011-15.172511-4.118253a55.19904 55.19904 0 0 0-68.782051 44.578282l-2.167501 13.72751h-25.576519A37.208777 37.208777 0 0 0 476.850349 461.027588l-27.74402-16.689763a70.154801 70.154801 0 0 1 58.811543-34.174275A86.700064 86.700064 0 0 1 599.675439 350.268257a120.368588 120.368588 0 0 1 223.975164 10.042757 91.757567 91.757567 0 0 1 30.056022-5.057504 92.841318 92.841318 0 0 1 84.749312 55.777041 69.721301 69.721301 0 0 1 60.039794 68.78205V484.075355a69.721301 69.721301 0 0 1-70.154801 69.36005z" fill="#0686D8" p-id="7527"></path><path d="M763.538559 384.081281a70.443802 70.443802 0 0 0-95.008819-22.325266l-16.617513-28.033021a103.028575 103.028575 0 0 1 138.936852 32.584774z" fill="#0686D8" p-id="7528"></path><path d="M645.987723 402.866295H613.402949a20.808015 20.808015 0 0 0-20.952515-20.735765v-32.584774a53.392789 53.392789 0 0 1 53.537289 53.320539z" fill="#0686D8" p-id="7529"></path><path d="M472.732096 853.345375h-1.734001a62.279546 62.279546 0 0 0-93.491569-35.041276 85.327312 85.327312 0 0 0-165.741621-12.282509 58.233543 58.233543 0 0 0-73.044803 47.323785h-9.537007a43.855782 43.855782 0 0 0-43.350032 43.783532v3.251252a43.783532 43.783532 0 0 0 43.350032 43.350032h343.549001a43.855782 43.855782 0 0 0 43.783532-43.350032v-3.251252a43.928032 43.928032 0 0 0-43.783532-43.783532z" fill="#D2E9F7" p-id="7530"></path><path d="M190.59564 944.091441h-61.412545a43.783532 43.783532 0 0 1-43.350032-43.350031v-3.251253a43.855782 43.855782 0 0 1 43.350032-43.783532h9.537007a58.233543 58.233543 0 0 1 73.044803-47.323784 85.327312 85.327312 0 0 1 165.741621 12.282509 62.279546 62.279546 0 0 1 93.491569 35.041275h1.734001a43.928032 43.928032 0 0 1 43.783532 43.783532v3.251253a43.855782 43.855782 0 0 1-43.783532 43.350031H190.59564z" fill="#D2E9F7" p-id="7531"></path><path d="M472.732096 960.419953H129.183095a60.112044 60.112044 0 0 1-60.039794-60.112044v-3.179002a60.112044 60.112044 0 0 1 57.005291-59.967544A74.706555 74.706555 0 0 1 201.433148 787.525577a101.655824 101.655824 0 0 1 186.910886 7.658505 78.319057 78.319057 0 0 1 22.831017-3.395752 79.475058 79.475058 0 0 1 71.527553 46.023284 60.112044 60.112044 0 0 1 50.069286 59.028293v3.179002a60.112044 60.112044 0 0 1-60.039794 60.401044z m-343.549001-90.746066a27.45502 27.45502 0 0 0-27.45502 27.45502v3.179002a27.52727 27.52727 0 0 0 27.45502 27.527271h343.549001a27.52727 27.52727 0 0 0 27.45502-27.527271v-3.179002a27.45502 27.45502 0 0 0-27.45502-27.45502h-12.282509l-5.274254-11.776759a46.167784 46.167784 0 0 0-44.144782-33.235024 45.662033 45.662033 0 0 0-24.854018 7.225005l-20.952516 13.43851-3.973752-24.565018a69.071051 69.071051 0 0 0-134.168349-9.898257l-4.624003 14.955761-15.172511-4.046003a42.194031 42.194031 0 0 0-52.670289 34.102025l-2.167501 13.79976z" fill="#0686D8" p-id="7532"></path><path d="M427.864813 238.425175h-1.08375a39.665279 39.665279 0 0 0-38.075778-28.900022 39.087279 39.087279 0 0 0-21.675016 6.285755 54.25979 54.25979 0 0 0-105.485077-7.803006 38.653778 38.653778 0 0 0-9.681508-1.300501A37.281027 37.281027 0 0 0 215.377408 238.425175H209.525153a27.88852 27.88852 0 0 0-27.81627 27.81627v2.095252A27.88852 27.88852 0 0 0 209.525153 296.225217h218.33966a27.88852 27.88852 0 0 0 27.816271-27.81627v-2.095252A27.88852 27.88852 0 0 0 427.864813 238.425175z" fill="#D2E9F7" p-id="7533"></path><path d="M248.323432 296.225217H209.525153a27.88852 27.88852 0 0 1-27.81627-27.81627v-2.095252A27.88852 27.88852 0 0 1 209.525153 238.425175h6.069005a37.281027 37.281027 0 0 1 36.775277-31.428773 38.653778 38.653778 0 0 1 9.681507 1.300501 54.25979 54.25979 0 0 1 105.485077 7.803005 39.087279 39.087279 0 0 1 21.675016-6.285754 39.665279 39.665279 0 0 1 38.075778 28.900021h1.083751a27.88852 27.88852 0 0 1 27.81627 27.81627v2.095252A27.88852 27.88852 0 0 1 427.864813 296.225217H248.323432z" fill="#D2E9F7" p-id="7534"></path><path d="M427.864813 312.481479H209.525153a44.217032 44.217032 0 0 1-44.144782-44.144782 44.939533 44.939533 0 0 1 38.003528-45.806534 53.248289 53.248289 0 0 1 48.479785-31.790023 70.588302 70.588302 0 0 1 126.004093 3.901503 57.222042 57.222042 0 0 1 60.617794 28.900021 44.072532 44.072532 0 0 1 33.740775 42.699781 44.795033 44.795033 0 0 1-44.361533 46.240034z m-218.33966-57.800042a11.704509 11.704509 0 0 0-11.560008 11.560008 12.354759 12.354759 0 0 0 11.560008 13.65526h218.33966a11.776759 11.776759 0 0 0 11.560009-11.560008 12.354759 12.354759 0 0 0-11.560009-13.65526h-12.282509l-4.479503-11.704509a24.059268 24.059268 0 0 0-35.041276-13.14951l-21.024765 13.51076-3.829253-24.709518a38.003528 38.003528 0 0 0-73.839554-5.491004l-4.624003 14.955761-15.100261-4.118253A20.591265 20.591265 0 0 0 231.200169 240.953926l-2.167501 13.727511z" fill="#0686D8" p-id="7535"></path><path d="M926.462429 578.000423h-17.484513a110.687081 110.687081 0 0 0-103.823326-72.828053H63.435546a185.321386 185.321386 0 0 0 185.321386 185.393636h677.705497a51.080787 51.080787 0 0 0 51.153037-51.080788v-10.331757a51.080787 51.080787 0 0 0-51.153037-51.153038z" fill="#FFFFFF" p-id="7536"></path><path d="M926.462429 647.143724h-677.705497A185.249136 185.249136 0 0 1 68.78205 505.24462h-5.346504a185.321386 185.321386 0 0 0 185.321386 185.321386h677.705497a51.080787 51.080787 0 0 0 51.153037-51.080788v-10.331757a50.141537 50.141537 0 0 0-3.034502-16.545262 50.575037 50.575037 0 0 1-48.118535 34.535525z" fill="#9ECFEF" p-id="7537"></path><path d="M926.462429 706.894518h-677.705497A201.866648 201.866648 0 0 1 47.107035 505.24462v-16.256262h758.047555a127.521343 127.521343 0 0 1 114.588584 72.755803h6.719255a67.481549 67.481549 0 0 1 67.409299 67.4093v10.331757a67.481549 67.481549 0 0 1-67.409299 67.4093zM80.486559 521.573132a169.354124 169.354124 0 0 0 168.270373 152.736612h677.705497a34.824526 34.824526 0 0 0 34.824525-34.824526v-10.331757a34.824526 34.824526 0 0 0-34.824525-34.824526h-28.900022l-3.973753-10.693008a94.792069 94.792069 0 0 0-88.506314-62.062795z" fill="#0686D8" p-id="7538"></path><path d="M36.125026 505.24462m25.432019 0l213.932407 0q25.432019 0 25.432018 25.432019l0 8.019756q0 25.432019-25.432018 25.432018l-213.932407 0q-25.432019 0-25.432019-25.432018l0-8.019756q0-25.432019 25.432019-25.432019Z" fill="#D2E9F7" p-id="7539"></path><path d="M404.889297 642.591971m25.432018 0l262.628943 0q25.432019 0 25.432018 25.432018l0 18.857264q0 25.432019-25.432018 25.432019l-262.628943 0q-25.432019 0-25.432018-25.432019l0-18.857264q0-25.432019 25.432018-25.432018Z" fill="#D2E9F7" p-id="7540"></path><path d="M275.489452 580.456925H61.557045a41.760531 41.760531 0 0 1-41.68828-41.76053v-8.019756a41.760531 41.760531 0 0 1 41.68828-41.688281h213.932407a41.760531 41.760531 0 0 1 41.76053 41.688281v8.019756a41.760531 41.760531 0 0 1-41.76053 41.76053zM61.557045 521.573132a9.175757 9.175757 0 0 0-9.103507 9.103507v8.019756a9.175757 9.175757 0 0 0 9.103507 9.175756h213.932407a9.175757 9.175757 0 0 0 9.175756-9.175756v-8.019756a9.175757 9.175757 0 0 0-9.175756-9.103507z" fill="#0686D8" p-id="7541"></path><path d="M692.950258 728.641784H430.321315a41.905031 41.905031 0 0 1-41.76053-41.760531v-18.857264a41.832781 41.832781 0 0 1 41.76053-41.76053h262.628943a41.760531 41.760531 0 0 1 41.68828 41.76053v18.857264a41.832781 41.832781 0 0 1-41.68828 41.760531z m-262.628943-69.793551a9.175757 9.175757 0 0 0-9.175757 9.175756v18.857264a9.175757 9.175757 0 0 0 9.175757 9.175757h262.628943a9.175757 9.175757 0 0 0 9.175756-9.175757v-18.857264a9.175757 9.175757 0 0 0-9.175756-9.175756z" fill="#0686D8" p-id="7542"></path><path d="M759.131306 547.872151h92.841318v32.584774h-92.841318z" fill="#0686D8" p-id="7543"></path><path d="M650.539476 547.872151h46.456784v32.584774h-46.456784z" fill="#0686D8" p-id="7544"></path><path d="M575.760672 547.872151h46.384534v32.584774h-46.384534z" fill="#0686D8" p-id="7545"></path><path d="M500.909617 547.872151h46.456784v32.584774h-46.456784z" fill="#0686D8" p-id="7546"></path><path d="M426.130812 547.872151h46.456784v32.584774h-46.456784z" fill="#0686D8" p-id="7547"></path><path d="M351.279757 547.872151h46.384534v32.584774h-46.384534z" fill="#0686D8" p-id="7548"></path></svg>