<?xml version="1.0" standalone="no"?><!DOCTYPE svg PUBLIC "-//W3C//DTD SVG 1.1//EN" "http://www.w3.org/Graphics/SVG/1.1/DTD/svg11.dtd"><svg t="1588486605992" class="icon" viewBox="0 0 1024 1024" version="1.1" xmlns="http://www.w3.org/2000/svg" p-id="7256" xmlns:xlink="http://www.w3.org/1999/xlink" width="16" height="16"><defs><style type="text/css"></style></defs><path d="M1000 1020c-4 0-8-1.6-11.2-4.8l-145.6-145.6H208.8c-4.8 0-9.6-2.4-12-5.6L8 634.4c-5.6-7.2-4.8-16.8 2.4-22.4 7.2-5.6 16.8-4.8 22.4 2.4l184 224h633.6c4 0 8 1.6 11.2 4.8l150.4 150.4c6.4 6.4 6.4 16 0 22.4-3.2 2.4-8 4-12 4z" p-id="7257"></path><path d="M208.8 1020c-8.8 0-16-7.2-16-16v-150.4c0-8.8 7.2-16 16-16s16 7.2 16 16v150.4c0 8.8-7.2 16-16 16zM572 1020c-8.8 0-16-7.2-16-16V674.4c0-8.8 7.2-16 16-16s16 7.2 16 16v329.6c0 8.8-7.2 16-16 16z" p-id="7258"></path><path d="M572 690.4c-36.8 0-66.4-29.6-66.4-66.4 0-36.8 29.6-66.4 66.4-66.4 36.8 0 66.4 29.6 66.4 66.4-0.8 36.8-30.4 66.4-66.4 66.4z m0-100c-18.4 0-34.4 15.2-34.4 34.4 0 18.4 15.2 34.4 34.4 34.4s34.4-15.2 34.4-34.4c-0.8-19.2-16-34.4-34.4-34.4z" p-id="7259"></path><path d="M586.4 592c-1.6 0-3.2 0-4.8-0.8-8.8-2.4-12.8-12-10.4-20l91.2-288.8c0-0.8 0.8-2.4 1.6-3.2l6.4-10.4c4.8-8 14.4-10.4 21.6-5.6 8 4.8 10.4 14.4 5.6 21.6l-5.6 8.8-90.4 287.2c-2.4 7.2-8.8 11.2-15.2 11.2z" p-id="7260"></path><path d="M1000 448.8c-5.6 0-11.2-3.2-14.4-8.8-14.4-28.8-38.4-50.4-68.8-61.6-45.6-16-96-4.8-130.4 29.6-4 4.8-11.2 5.6-16.8 4-5.6-2.4-9.6-7.2-10.4-13.6-4-48-36-89.6-81.6-106.4-45.6-16-96-4.8-130.4 29.6-4 4.8-11.2 5.6-16.8 4-5.6-2.4-9.6-7.2-10.4-13.6-4-48-36-89.6-81.6-106.4-29.6-11.2-62.4-9.6-92 3.2-6.4 2.4-13.6 0.8-18.4-4-4.8-5.6-5.6-12.8-1.6-19.2C418.4 32.8 606.4-34.4 773.6 26.4c167.2 60.8 269.6 232.8 241.6 408.8-0.8 7.2-6.4 12-13.6 13.6h-1.6z m-124.8-109.6c17.6 0 35.2 3.2 52.8 9.6 23.2 8 44 21.6 60 39.2 4-145.6-85.6-280.8-224.8-331.2C623.2 5.6 468 52 378.4 166.4c24-3.2 48.8 0 72 8C497.6 192 533.6 232 547.2 280c40.8-28 94.4-36 141.6-18.4 48 17.6 84 56.8 96.8 104.8 26.4-17.6 57.6-27.2 89.6-27.2z" p-id="7261"></path><path d="M775.2 404.8h-0.8c-4-0.8-6.4-3.2-7.2-7.2-4.8-51.2-38.4-96-86.4-112.8-48-17.6-102.4-4.8-138.4 31.2-2.4 2.4-7.2 3.2-10.4 0.8-3.2-2.4-4.8-6.4-3.2-9.6l16-39.2c71.2-160 164-256 226.4-233.6 62.4 22.4 72 156 24.8 324l-12.8 40.8c-1.6 3.2-4.8 5.6-8 5.6zM636 260c16.8 0 33.6 3.2 50.4 8.8 44 16 76.8 51.2 90.4 95.2l3.2-11.2C824 198.4 817.6 67.2 765.6 48 713.6 29.6 624.8 126.4 560 273.6l-4 10.4c23.2-15.2 51.2-24 80-24z" p-id="7262"></path></svg>